<?xml version="1.0" encoding="utf-8"?>
<!-- Generator: Adobe Illustrator 27.6.1, SVG Export Plug-In . SVG Version: 6.00 Build 0)  -->
<svg version="1.1" id="Layer_1" xmlns="http://www.w3.org/2000/svg" xmlns:xlink="http://www.w3.org/1999/xlink" x="0px" y="0px"
	 viewBox="0 0 56 40" style="enable-background:new 0 0 56 40;" xml:space="preserve">
<style type="text/css">
	.st0{fill:#F38C1F;}
	.st1{fill:#FFFFFF;}
</style>
<path class="st0" d="M5,0h46c2.8,0,5,2.2,5,5v26c0,2.8-2.2,5-5,5H5c-2.8,0-5-2.2-5-5V5C0,2.2,2.2,0,5,0z"/>
<path class="st1" d="M6,25.6l0.6-3.9L18.7,6.3H22l-0.9,5.4h-2l-7.6,9.7l0,0.2h13.6l-0.6,4H6z M16.4,29.7l0.9-5.3l0.4-1.7l2.7-16.4
	h4.6L21,29.7H16.4z"/>
<path class="st1" d="M50,14.5h-4.9c0-0.7-0.1-1.2-0.2-1.7c-0.2-0.5-0.4-0.9-0.8-1.3c-0.4-0.4-0.8-0.6-1.3-0.8
	c-0.5-0.2-1.1-0.3-1.7-0.3c-1.2,0-2.4,0.3-3.4,0.9c-1,0.6-1.9,1.5-2.6,2.7c-0.7,1.2-1.2,2.6-1.5,4.3c-0.3,1.6-0.2,3,0,4
	c0.3,1.1,0.8,1.9,1.5,2.5c0.7,0.5,1.7,0.8,2.8,0.8c0.7,0,1.3-0.1,2-0.3c0.6-0.2,1.2-0.4,1.7-0.8c0.5-0.3,1-0.8,1.3-1.2
	c0.4-0.5,0.7-1,0.9-1.7h4.9c-0.3,1.1-0.8,2.1-1.4,3.1c-0.6,1-1.4,1.9-2.4,2.7c-1,0.8-2,1.4-3.2,1.8c-1.2,0.5-2.5,0.7-4,0.7
	c-2.1,0-3.9-0.5-5.4-1.5c-1.5-1-2.6-2.4-3.2-4.2c-0.7-1.8-0.8-4-0.4-6.6c0.4-2.5,1.2-4.6,2.4-6.4c1.2-1.7,2.7-3.1,4.4-4
	C37.3,6.5,39.2,6,41.2,6c1.4,0,2.6,0.2,3.7,0.6s2.1,0.9,2.8,1.7c0.8,0.7,1.4,1.6,1.8,2.7C49.9,11.9,50,13.1,50,14.5z"/>
</svg>
