<svg width="210" height="40" viewBox="0 0 210 40" fill="none" xmlns="http://www.w3.org/2000/svg">
<rect x="154" width="56" height="36" rx="5" fill="#F38C1F"/>
<path d="M160 25.5741L160.629 21.6844L172.745 6.31939H176.047L175.171 11.7034H173.206L165.57 21.4335L165.547 21.616H179.18L178.54 25.5741H160ZM170.365 29.6806L171.241 24.3764L171.611 22.6768L174.272 6.31939H178.832L175.014 29.6806H170.365Z" fill="white"/>
<path d="M203.991 14.4981H199.14C199.155 13.8441 199.072 13.2662 198.893 12.7643C198.713 12.2548 198.444 11.8213 198.084 11.4639C197.732 11.1065 197.302 10.8365 196.793 10.654C196.284 10.4639 195.711 10.3688 195.075 10.3688C193.847 10.3688 192.72 10.6806 191.695 11.3042C190.669 11.9278 189.804 12.8327 189.101 14.019C188.397 15.1977 187.91 16.6236 187.641 18.2966C187.379 19.9087 187.394 21.2586 187.686 22.346C187.978 23.4335 188.494 24.2548 189.236 24.8099C189.984 25.3574 190.916 25.6312 192.032 25.6312C192.72 25.6312 193.375 25.5437 193.997 25.3688C194.618 25.1863 195.183 24.9278 195.692 24.5932C196.209 24.251 196.658 23.8365 197.04 23.3498C197.429 22.8631 197.732 22.3118 197.949 21.6958H202.834C202.527 22.7681 202.048 23.8023 201.397 24.7985C200.753 25.7947 199.956 26.6844 199.005 27.4677C198.054 28.2433 196.973 28.8593 195.76 29.3156C194.547 29.7719 193.218 30 191.773 30C189.685 30 187.892 29.5133 186.395 28.5399C184.905 27.5665 183.83 26.1635 183.172 24.3308C182.513 22.4981 182.389 20.289 182.801 17.7034C183.213 15.2015 184.018 13.0798 185.215 11.3384C186.421 9.58935 187.884 8.26236 189.606 7.35741C191.335 6.45247 193.184 6 195.153 6C196.523 6 197.762 6.19011 198.87 6.57034C199.978 6.95057 200.921 7.5057 201.7 8.23574C202.486 8.95817 203.078 9.84411 203.474 10.8935C203.871 11.943 204.043 13.1445 203.991 14.4981Z" fill="white"/>
<path fill-rule="evenodd" clip-rule="evenodd" d="M3.5 1C1.567 1 0 2.567 0 4.5V4.63636C0 4.83719 0.162806 5 0.363637 5H6.63637C6.8372 5 7 4.83719 7 4.63636V4.5C7 2.567 5.433 1 3.5 1ZM146.574 31.2987C147.596 31.0296 148.452 30.6408 149.143 30.1325L147.25 25.1988C146.469 25.7968 145.522 26.0958 144.41 26.0958C143.448 26.0958 142.697 25.8267 142.156 25.2885C141.645 24.7204 141.389 23.928 141.389 22.9113V13.0887H147.43V7.70642H141.389V1.83078H134.357V7.70642H130.615V13.0887H134.357V23.001C134.357 25.8417 135.138 27.9946 136.701 29.4597C138.294 30.9249 140.533 31.6575 143.418 31.6575C144.53 31.6575 145.582 31.5379 146.574 31.2987ZM47.702 9.50051C45.9288 7.70642 43.5244 6.80937 40.4889 6.80937C38.6856 6.80937 37.0176 7.15324 35.4848 7.84098C33.9821 8.52871 32.7348 9.50051 31.743 10.7564C30.9014 9.4706 29.7894 8.49881 28.4069 7.84098C27.0244 7.15324 25.4766 6.80937 23.7634 6.80937C22.2006 6.80937 20.758 7.07849 19.4356 7.61671C18.1432 8.15494 17.0462 8.93238 16.1446 9.94903V7.16819H9.42733V31.2987H16.4601V19.1886C16.4601 17.0955 16.941 15.5257 17.9028 14.4791C18.8645 13.4026 20.1569 12.8644 21.7798 12.8644C24.8454 12.8644 26.3782 14.7632 26.3782 18.5606V31.2987H33.411V19.1886C33.411 17.0955 33.8919 15.5257 34.8536 14.4791C35.8154 13.4026 37.1228 12.8644 38.7758 12.8644C40.2485 12.8644 41.3755 13.3428 42.1569 14.2997C42.9684 15.2266 43.3742 16.647 43.3742 18.5606V31.2987H50.407V17.4842C50.407 13.9259 49.5053 11.2647 47.702 9.50051ZM7.03281 7.16819H0V31.2987H7.03281V7.16819ZM66.9143 6.80937C69.1684 6.80937 71.2121 7.33265 73.0455 8.3792C74.9089 9.39585 76.3665 10.8461 77.4184 12.7299C78.4704 14.5838 78.9963 16.7516 78.9963 19.2334C78.9963 21.7153 78.4704 23.8981 77.4184 25.7819C76.3665 27.6357 74.9089 29.086 73.0455 30.1325C71.2121 31.1492 69.1684 31.6575 66.9143 31.6575C63.8187 31.6575 61.3842 30.6857 59.611 28.7421V40H52.5782V7.16819H59.2954V9.94903C61.0386 7.85593 63.5782 6.80937 66.9143 6.80937ZM65.6971 25.9164C67.5004 25.9164 68.973 25.3184 70.1151 24.1223C71.2873 22.8964 71.8733 21.2667 71.8733 19.2334C71.8733 17.2001 71.2873 15.5855 70.1151 14.3894C68.973 13.1634 67.5004 12.5505 65.6971 12.5505C63.8938 12.5505 62.4061 13.1634 61.234 14.3894C60.0919 15.5855 59.5208 17.2001 59.5208 19.2334C59.5208 21.2667 60.0919 22.8964 61.234 24.1223C62.4061 25.3184 63.8938 25.9164 65.6971 25.9164ZM99.4925 9.50051C97.4788 7.70642 94.5935 6.80937 90.8367 6.80937C88.8831 6.80937 86.9747 7.06354 85.1113 7.57186C83.2779 8.08019 81.7001 8.79782 80.3777 9.72477L82.9023 14.6137C83.7738 13.9259 84.8258 13.3877 86.058 12.999C87.3203 12.5804 88.5976 12.371 89.89 12.371C91.7534 12.371 93.1509 12.7897 94.0826 13.6269C95.0143 14.4342 95.4802 15.6004 95.4802 17.1254H89.89C86.3435 17.1254 83.7137 17.7683 82.0006 19.054C80.3175 20.3398 79.476 22.104 79.476 24.3466C79.476 25.752 79.8367 27.0078 80.558 28.1142C81.2793 29.2205 82.3162 30.0877 83.6686 30.7156C85.0512 31.3435 86.6741 31.6575 88.5375 31.6575C92.1441 31.6575 94.6086 30.5362 95.931 28.2936V31.2987H102.513V17.529C102.513 13.9409 101.506 11.2647 99.4925 9.50051ZM93.4966 26.1407C92.5648 26.6789 91.4979 26.948 90.2957 26.948C89.0635 26.948 88.0867 26.6938 87.3654 26.1855C86.6741 25.6473 86.3285 24.9297 86.3285 24.0326C86.3285 22.1488 87.7711 21.2069 90.6564 21.2069H95.4802V23.6738C95.0894 24.7503 94.4282 25.5725 93.4966 26.1407ZM118.609 31.6575C116.025 31.6575 113.695 31.1342 111.622 30.0877C109.578 29.0112 107.97 27.5311 106.798 25.6473C105.656 23.7635 105.085 21.6256 105.085 19.2334C105.085 16.8413 105.656 14.7034 106.798 12.8196C107.97 10.9358 109.578 9.4706 111.622 8.42405C113.695 7.3476 116.025 6.80937 118.609 6.80937C121.164 6.80937 123.388 7.3476 125.282 8.42405C127.205 9.4706 128.603 10.9806 129.474 12.9541L124.019 15.8695C122.757 13.6568 120.939 12.5505 118.564 12.5505C116.731 12.5505 115.213 13.1485 114.011 14.3445C112.809 15.5406 112.208 17.1702 112.208 19.2334C112.208 21.2966 112.809 22.9263 114.011 24.1223C115.213 25.3184 116.731 25.9164 118.564 25.9164C120.969 25.9164 122.787 24.8101 124.019 22.5973L129.474 25.5576C128.603 27.4713 127.205 28.9664 125.282 30.0428C123.388 31.1193 121.164 31.6575 118.609 31.6575Z" fill="white"/>
</svg>
